<?xml version="1.0" encoding="UTF-8"?>
<svg xmlns="http://www.w3.org/2000/svg" xmlns:xlink="http://www.w3.org/1999/xlink" width="135.843" height="93.335" viewBox="0 0 135.843 93.335">
<defs>
<g>
<g id="glyph-0-0">
<path d="M 1.78125 -1.140625 C 1.390625 -0.484375 1 -0.34375 0.5625 -0.3125 C 0.4375 -0.296875 0.34375 -0.296875 0.34375 -0.109375 C 0.34375 -0.046875 0.40625 0 0.484375 0 C 0.75 0 1.0625 -0.03125 1.328125 -0.03125 C 1.671875 -0.03125 2.015625 0 2.328125 0 C 2.390625 0 2.515625 0 2.515625 -0.1875 C 2.515625 -0.296875 2.4375 -0.3125 2.359375 -0.3125 C 2.140625 -0.328125 1.890625 -0.40625 1.890625 -0.65625 C 1.890625 -0.78125 1.953125 -0.890625 2.03125 -1.03125 L 2.796875 -2.296875 L 5.296875 -2.296875 C 5.3125 -2.09375 5.453125 -0.734375 5.453125 -0.640625 C 5.453125 -0.34375 4.9375 -0.3125 4.734375 -0.3125 C 4.59375 -0.3125 4.5 -0.3125 4.5 -0.109375 C 4.5 0 4.609375 0 4.640625 0 C 5.046875 0 5.46875 -0.03125 5.875 -0.03125 C 6.125 -0.03125 6.765625 0 7.015625 0 C 7.0625 0 7.1875 0 7.1875 -0.203125 C 7.1875 -0.3125 7.09375 -0.3125 6.953125 -0.3125 C 6.34375 -0.3125 6.34375 -0.375 6.3125 -0.671875 L 5.703125 -6.890625 C 5.6875 -7.09375 5.6875 -7.140625 5.515625 -7.140625 C 5.359375 -7.140625 5.3125 -7.0625 5.25 -6.96875 Z M 2.984375 -2.609375 L 4.9375 -5.90625 L 5.265625 -2.609375 Z M 2.984375 -2.609375 "/>
</g>
<g id="glyph-0-1">
<path d="M 1.59375 -0.78125 C 1.5 -0.390625 1.46875 -0.3125 0.6875 -0.3125 C 0.515625 -0.3125 0.421875 -0.3125 0.421875 -0.109375 C 0.421875 0 0.515625 0 0.6875 0 L 4.25 0 C 5.828125 0 7 -1.171875 7 -2.15625 C 7 -2.875 6.421875 -3.453125 5.453125 -3.5625 C 6.484375 -3.75 7.53125 -4.484375 7.53125 -5.4375 C 7.53125 -6.171875 6.875 -6.8125 5.6875 -6.8125 L 2.328125 -6.8125 C 2.140625 -6.8125 2.046875 -6.8125 2.046875 -6.609375 C 2.046875 -6.5 2.140625 -6.5 2.328125 -6.5 C 2.34375 -6.5 2.53125 -6.5 2.703125 -6.484375 C 2.875 -6.453125 2.96875 -6.453125 2.96875 -6.3125 C 2.96875 -6.28125 2.953125 -6.25 2.9375 -6.125 Z M 3.09375 -3.65625 L 3.71875 -6.125 C 3.8125 -6.46875 3.828125 -6.5 4.25 -6.5 L 5.546875 -6.5 C 6.421875 -6.5 6.625 -5.90625 6.625 -5.46875 C 6.625 -4.59375 5.765625 -3.65625 4.5625 -3.65625 Z M 2.65625 -0.3125 C 2.515625 -0.3125 2.5 -0.3125 2.4375 -0.3125 C 2.328125 -0.328125 2.296875 -0.34375 2.296875 -0.421875 C 2.296875 -0.453125 2.296875 -0.46875 2.359375 -0.640625 L 3.046875 -3.421875 L 4.921875 -3.421875 C 5.875 -3.421875 6.078125 -2.6875 6.078125 -2.265625 C 6.078125 -1.28125 5.1875 -0.3125 4 -0.3125 Z M 2.65625 -0.3125 "/>
</g>
<g id="glyph-0-2">
<path d="M 7.578125 -6.921875 C 7.578125 -6.953125 7.5625 -7.03125 7.46875 -7.03125 C 7.4375 -7.03125 7.421875 -7.015625 7.3125 -6.90625 L 6.625 -6.140625 C 6.53125 -6.28125 6.078125 -7.03125 4.96875 -7.03125 C 2.734375 -7.03125 0.5 -4.828125 0.5 -2.515625 C 0.5 -0.875 1.671875 0.21875 3.203125 0.21875 C 4.0625 0.21875 4.828125 -0.171875 5.359375 -0.640625 C 6.28125 -1.453125 6.453125 -2.359375 6.453125 -2.390625 C 6.453125 -2.5 6.34375 -2.5 6.328125 -2.5 C 6.265625 -2.5 6.21875 -2.46875 6.203125 -2.390625 C 6.109375 -2.109375 5.875 -1.390625 5.1875 -0.8125 C 4.5 -0.265625 3.875 -0.09375 3.359375 -0.09375 C 2.46875 -0.09375 1.40625 -0.609375 1.40625 -2.15625 C 1.40625 -2.734375 1.609375 -4.34375 2.609375 -5.515625 C 3.21875 -6.21875 4.15625 -6.71875 5.046875 -6.71875 C 6.0625 -6.71875 6.65625 -5.953125 6.65625 -4.796875 C 6.65625 -4.390625 6.625 -4.390625 6.625 -4.28125 C 6.625 -4.1875 6.734375 -4.1875 6.765625 -4.1875 C 6.890625 -4.1875 6.890625 -4.203125 6.953125 -4.390625 Z M 7.578125 -6.921875 "/>
</g>
<g id="glyph-1-0">
<path d="M 3.296875 2.390625 C 3.296875 2.359375 3.296875 2.34375 3.125 2.171875 C 1.890625 0.921875 1.5625 -0.96875 1.5625 -2.5 C 1.5625 -4.234375 1.9375 -5.96875 3.171875 -7.203125 C 3.296875 -7.328125 3.296875 -7.34375 3.296875 -7.375 C 3.296875 -7.453125 3.265625 -7.484375 3.203125 -7.484375 C 3.09375 -7.484375 2.203125 -6.796875 1.609375 -5.53125 C 1.109375 -4.4375 0.984375 -3.328125 0.984375 -2.5 C 0.984375 -1.71875 1.09375 -0.515625 1.640625 0.625 C 2.25 1.84375 3.09375 2.5 3.203125 2.5 C 3.265625 2.5 3.296875 2.46875 3.296875 2.390625 Z M 3.296875 2.390625 "/>
</g>
<g id="glyph-1-1">
<path d="M 7.140625 0 L 7.140625 -0.3125 L 6.96875 -0.3125 C 6.375 -0.3125 6.234375 -0.375 6.125 -0.703125 L 3.96875 -6.9375 C 3.921875 -7.0625 3.890625 -7.140625 3.734375 -7.140625 C 3.578125 -7.140625 3.546875 -7.078125 3.5 -6.9375 L 1.4375 -0.984375 C 1.25 -0.46875 0.859375 -0.3125 0.3125 -0.3125 L 0.3125 0 L 1.328125 -0.03125 L 2.484375 0 L 2.484375 -0.3125 C 1.984375 -0.3125 1.734375 -0.5625 1.734375 -0.8125 C 1.734375 -0.84375 1.75 -0.953125 1.75 -0.96875 L 2.21875 -2.265625 L 4.671875 -2.265625 L 5.203125 -0.75 C 5.21875 -0.703125 5.234375 -0.640625 5.234375 -0.609375 C 5.234375 -0.3125 4.671875 -0.3125 4.40625 -0.3125 L 4.40625 0 C 4.765625 -0.03125 5.46875 -0.03125 5.84375 -0.03125 Z M 4.5625 -2.578125 L 2.328125 -2.578125 L 3.4375 -5.828125 Z M 4.5625 -2.578125 "/>
</g>
<g id="glyph-1-2">
<path d="M 6.484375 -1.828125 C 6.484375 -2.6875 5.671875 -3.4375 4.5625 -3.5625 C 5.53125 -3.75 6.21875 -4.390625 6.21875 -5.125 C 6.21875 -5.984375 5.296875 -6.8125 4 -6.8125 L 0.359375 -6.8125 L 0.359375 -6.5 L 0.59375 -6.5 C 1.359375 -6.5 1.390625 -6.390625 1.390625 -6.03125 L 1.390625 -0.78125 C 1.390625 -0.421875 1.359375 -0.3125 0.59375 -0.3125 L 0.359375 -0.3125 L 0.359375 0 L 4.265625 0 C 5.59375 0 6.484375 -0.890625 6.484375 -1.828125 Z M 5.25 -5.125 C 5.25 -4.484375 4.765625 -3.65625 3.65625 -3.65625 L 2.21875 -3.65625 L 2.21875 -6.09375 C 2.21875 -6.4375 2.234375 -6.5 2.703125 -6.5 L 3.9375 -6.5 C 4.90625 -6.5 5.25 -5.65625 5.25 -5.125 Z M 5.5 -1.828125 C 5.5 -1.125 4.96875 -0.3125 3.953125 -0.3125 L 2.703125 -0.3125 C 2.234375 -0.3125 2.21875 -0.375 2.21875 -0.703125 L 2.21875 -3.421875 L 4.09375 -3.421875 C 5.078125 -3.421875 5.5 -2.5 5.5 -1.828125 Z M 5.5 -1.828125 "/>
</g>
<g id="glyph-1-3">
<path d="M 2.875 -2.5 C 2.875 -3.265625 2.765625 -4.46875 2.21875 -5.609375 C 1.625 -6.828125 0.765625 -7.484375 0.671875 -7.484375 C 0.609375 -7.484375 0.5625 -7.4375 0.5625 -7.375 C 0.5625 -7.34375 0.5625 -7.328125 0.75 -7.140625 C 1.734375 -6.15625 2.296875 -4.578125 2.296875 -2.5 C 2.296875 -0.78125 1.9375 0.96875 0.703125 2.21875 C 0.5625 2.34375 0.5625 2.359375 0.5625 2.390625 C 0.5625 2.453125 0.609375 2.5 0.671875 2.5 C 0.765625 2.5 1.671875 1.8125 2.25 0.546875 C 2.765625 -0.546875 2.875 -1.65625 2.875 -2.5 Z M 2.875 -2.5 "/>
</g>
<g id="glyph-1-4">
<path d="M 7.1875 -3.453125 C 7.1875 -3.65625 7 -3.65625 6.859375 -3.65625 L 0.890625 -3.65625 C 0.75 -3.65625 0.5625 -3.65625 0.5625 -3.453125 C 0.5625 -3.265625 0.75 -3.265625 0.890625 -3.265625 L 6.84375 -3.265625 C 7 -3.265625 7.1875 -3.265625 7.1875 -3.453125 Z M 7.1875 -1.53125 C 7.1875 -1.71875 7 -1.71875 6.84375 -1.71875 L 0.890625 -1.71875 C 0.75 -1.71875 0.5625 -1.71875 0.5625 -1.53125 C 0.5625 -1.328125 0.75 -1.328125 0.890625 -1.328125 L 6.859375 -1.328125 C 7 -1.328125 7.1875 -1.328125 7.1875 -1.53125 Z M 7.1875 -1.53125 "/>
</g>
<g id="glyph-1-5">
<path d="M 6.625 -2.328125 C 6.625 -2.421875 6.625 -2.5 6.5 -2.5 C 6.390625 -2.5 6.390625 -2.4375 6.375 -2.328125 C 6.296875 -0.90625 5.234375 -0.09375 4.140625 -0.09375 C 3.53125 -0.09375 1.578125 -0.421875 1.578125 -3.40625 C 1.578125 -6.375 3.53125 -6.71875 4.140625 -6.71875 C 5.21875 -6.71875 6.109375 -5.8125 6.3125 -4.359375 C 6.328125 -4.21875 6.328125 -4.1875 6.46875 -4.1875 C 6.625 -4.1875 6.625 -4.21875 6.625 -4.421875 L 6.625 -6.78125 C 6.625 -6.953125 6.625 -7.03125 6.515625 -7.03125 C 6.484375 -7.03125 6.4375 -7.03125 6.359375 -6.90625 L 5.859375 -6.171875 C 5.5 -6.53125 4.984375 -7.03125 4.03125 -7.03125 C 2.15625 -7.03125 0.5625 -5.4375 0.5625 -3.40625 C 0.5625 -1.34375 2.171875 0.21875 4.03125 0.21875 C 5.65625 0.21875 6.625 -1.171875 6.625 -2.328125 Z M 6.625 -2.328125 "/>
</g>
<g id="glyph-1-6">
<path d="M 7.1875 -2.5 C 7.1875 -2.6875 7 -2.6875 6.859375 -2.6875 L 4.078125 -2.6875 L 4.078125 -5.484375 C 4.078125 -5.625 4.078125 -5.8125 3.875 -5.8125 C 3.671875 -5.8125 3.671875 -5.625 3.671875 -5.484375 L 3.671875 -2.6875 L 0.890625 -2.6875 C 0.75 -2.6875 0.5625 -2.6875 0.5625 -2.5 C 0.5625 -2.296875 0.75 -2.296875 0.890625 -2.296875 L 3.671875 -2.296875 L 3.671875 0.5 C 3.671875 0.640625 3.671875 0.828125 3.875 0.828125 C 4.078125 0.828125 4.078125 0.640625 4.078125 0.5 L 4.078125 -2.296875 L 6.859375 -2.296875 C 7 -2.296875 7.1875 -2.296875 7.1875 -2.5 Z M 7.1875 -2.5 "/>
</g>
<g id="glyph-1-7">
<path d="M 2.046875 -5.875 C 2.046875 -6.46875 1.8125 -6.921875 1.390625 -6.921875 C 1.03125 -6.921875 0.859375 -6.65625 0.859375 -6.390625 C 0.859375 -6.125 1.03125 -5.859375 1.390625 -5.859375 C 1.578125 -5.859375 1.71875 -5.96875 1.78125 -6.015625 C 1.796875 -6.046875 1.8125 -6.046875 1.8125 -6.046875 C 1.8125 -6.046875 1.828125 -5.90625 1.828125 -5.875 C 1.828125 -5.546875 1.765625 -4.828125 1.140625 -4.21875 C 1.015625 -4.09375 1.015625 -4.078125 1.015625 -4.046875 C 1.015625 -3.984375 1.0625 -3.9375 1.109375 -3.9375 C 1.21875 -3.9375 2.046875 -4.6875 2.046875 -5.875 Z M 2.046875 -5.875 "/>
</g>
<g id="glyph-2-0">
<path d="M 6.09375 -3.78125 C 6.09375 -5.296875 4.5625 -5.96875 3.3125 -5.96875 C 2.03125 -5.96875 0.546875 -5.265625 0.546875 -3.796875 L 0.546875 -0.140625 C 0.546875 0.046875 0.546875 0.21875 0.75 0.21875 C 0.953125 0.21875 0.953125 0.046875 0.953125 -0.140625 L 0.953125 -3.75 C 0.953125 -5.25 2.578125 -5.5625 3.3125 -5.5625 C 3.765625 -5.5625 4.390625 -5.46875 4.921875 -5.140625 C 5.6875 -4.640625 5.6875 -4 5.6875 -3.734375 L 5.6875 -0.140625 C 5.6875 0.046875 5.6875 0.21875 5.890625 0.21875 C 6.09375 0.21875 6.09375 0.046875 6.09375 -0.140625 Z M 6.09375 -3.78125 "/>
</g>
</g>
<clipPath id="clip-0">
<path clip-rule="nonzero" d="M 60 0 L 76 0 L 76 43 L 60 43 Z M 60 0 "/>
</clipPath>
<clipPath id="clip-1">
<path clip-rule="nonzero" d="M 75.007812 21.660156 C 75.007812 9.917969 65.488281 0.398438 53.746094 0.398438 C 42.007812 0.398438 32.488281 9.917969 32.488281 21.660156 C 32.488281 33.402344 42.007812 42.917969 53.746094 42.917969 C 65.488281 42.917969 75.007812 33.402344 75.007812 21.660156 Z M 75.007812 21.660156 "/>
</clipPath>
<clipPath id="clip-2">
<path clip-rule="nonzero" d="M 49 0 L 76 0 L 76 43 L 49 43 Z M 49 0 "/>
</clipPath>
<clipPath id="clip-3">
<path clip-rule="nonzero" d="M 75.007812 21.660156 C 75.007812 9.917969 65.488281 0.398438 53.746094 0.398438 C 42.007812 0.398438 32.488281 9.917969 32.488281 21.660156 C 32.488281 33.402344 42.007812 42.917969 53.746094 42.917969 C 65.488281 42.917969 75.007812 33.402344 75.007812 21.660156 Z M 75.007812 21.660156 "/>
</clipPath>
</defs>
<g clip-path="url(#clip-0)">
<g clip-path="url(#clip-1)">
<path fill-rule="nonzero" fill="rgb(79.998779%, 79.998779%, 100%)" fill-opacity="1" d="M 103.355469 21.660156 C 103.355469 9.917969 93.835938 0.398438 82.09375 0.398438 C 70.351562 0.398438 60.835938 9.917969 60.835938 21.660156 C 60.835938 33.402344 70.351562 42.917969 82.09375 42.917969 C 93.835938 42.917969 103.355469 33.402344 103.355469 21.660156 Z M 103.355469 21.660156 "/>
</g>
</g>
<g clip-path="url(#clip-2)">
<g clip-path="url(#clip-3)">
<path fill="none" stroke-width="0.79701" stroke-linecap="butt" stroke-linejoin="miter" stroke="rgb(0%, 0%, 0%)" stroke-opacity="1" stroke-miterlimit="10" d="M 49.607469 -0.00115625 C 49.607469 11.741031 40.087937 21.260563 28.34575 21.260563 C 16.603562 21.260563 7.087937 11.741031 7.087937 -0.00115625 C 7.087937 -11.743344 16.603562 -21.258969 28.34575 -21.258969 C 40.087937 -21.258969 49.607469 -11.743344 49.607469 -0.00115625 Z M 49.607469 -0.00115625 " transform="matrix(1, 0, 0, -1, 53.748, 21.659)"/>
</g>
</g>
<path fill="none" stroke-width="0.79701" stroke-linecap="butt" stroke-linejoin="miter" stroke="rgb(0%, 0%, 0%)" stroke-opacity="1" stroke-miterlimit="10" d="M 21.259812 -0.00115625 C 21.259812 11.741031 11.740281 21.260563 -0.00190625 21.260563 C -11.740188 21.260563 -21.259719 11.741031 -21.259719 -0.00115625 C -21.259719 -11.743344 -11.740188 -21.258969 -0.00190625 -21.258969 C 11.740281 -21.258969 21.259812 -11.743344 21.259812 -0.00115625 Z M 21.259812 -0.00115625 " transform="matrix(1, 0, 0, -1, 53.748, 21.659)"/>
<g fill="rgb(0%, 0%, 0%)" fill-opacity="1">
<use xlink:href="#glyph-0-0" x="42.557" y="25.063"/>
</g>
<path fill="none" stroke-width="0.79701" stroke-linecap="butt" stroke-linejoin="miter" stroke="rgb(0%, 0%, 0%)" stroke-opacity="1" stroke-miterlimit="10" d="M 49.607469 -0.00115625 C 49.607469 11.741031 40.087937 21.260563 28.34575 21.260563 C 16.603562 21.260563 7.087937 11.741031 7.087937 -0.00115625 C 7.087937 -11.743344 16.603562 -21.258969 28.34575 -21.258969 C 40.087937 -21.258969 49.607469 -11.743344 49.607469 -0.00115625 Z M 49.607469 -0.00115625 " transform="matrix(1, 0, 0, -1, 53.748, 21.659)"/>
<g fill="rgb(0%, 0%, 0%)" fill-opacity="1">
<use xlink:href="#glyph-0-1" x="85.814" y="25.063"/>
</g>
<path fill="none" stroke-width="0.79701" stroke-linecap="butt" stroke-linejoin="miter" stroke="rgb(0%, 0%, 0%)" stroke-opacity="1" stroke-miterlimit="10" d="M 35.431687 -21.258969 C 35.431687 -9.516781 25.916062 -0.00115625 14.173875 -0.00115625 C 2.431687 -0.00115625 -7.087844 -9.516781 -7.087844 -21.258969 C -7.087844 -33.001156 2.431687 -42.520687 14.173875 -42.520687 C 25.916062 -42.520687 35.431687 -33.001156 35.431687 -21.258969 Z M 35.431687 -21.258969 " transform="matrix(1, 0, 0, -1, 53.748, 21.659)"/>
<g fill="rgb(0%, 0%, 0%)" fill-opacity="1">
<use xlink:href="#glyph-0-2" x="64.005" y="53.445"/>
</g>
<g fill="rgb(0%, 0%, 0%)" fill-opacity="1">
<use xlink:href="#glyph-1-0" x="46.269" y="75.569"/>
<use xlink:href="#glyph-1-1" x="50.144467" y="75.569"/>
</g>
<g fill="rgb(0%, 0%, 0%)" fill-opacity="1">
<use xlink:href="#glyph-2-0" x="60.935" y="75.569"/>
</g>
<g fill="rgb(0%, 0%, 0%)" fill-opacity="1">
<use xlink:href="#glyph-1-2" x="70.894" y="75.569"/>
<use xlink:href="#glyph-1-3" x="77.947549" y="75.569"/>
<use xlink:href="#glyph-1-4" x="81.823016" y="75.569"/>
</g>
<g fill="rgb(0%, 0%, 0%)" fill-opacity="1">
<use xlink:href="#glyph-1-0" x="3.321" y="87.524"/>
<use xlink:href="#glyph-1-1" x="7.196467" y="87.524"/>
</g>
<g fill="rgb(0%, 0%, 0%)" fill-opacity="1">
<use xlink:href="#glyph-2-0" x="17.986" y="87.524"/>
</g>
<g fill="rgb(0%, 0%, 0%)" fill-opacity="1">
<use xlink:href="#glyph-1-2" x="27.945" y="87.524"/>
</g>
<g fill="rgb(0%, 0%, 0%)" fill-opacity="1">
<use xlink:href="#glyph-2-0" x="38.316" y="87.524"/>
</g>
<g fill="rgb(0%, 0%, 0%)" fill-opacity="1">
<use xlink:href="#glyph-1-5" x="48.275" y="87.524"/>
<use xlink:href="#glyph-1-3" x="55.468026" y="87.524"/>
</g>
<g fill="rgb(0%, 0%, 0%)" fill-opacity="1">
<use xlink:href="#glyph-1-6" x="62.661052" y="87.524"/>
</g>
<g fill="rgb(0%, 0%, 0%)" fill-opacity="1">
<use xlink:href="#glyph-1-0" x="73.729545" y="87.524"/>
<use xlink:href="#glyph-1-1" x="77.605012" y="87.524"/>
</g>
<g fill="rgb(0%, 0%, 0%)" fill-opacity="1">
<use xlink:href="#glyph-2-0" x="88.395" y="87.524"/>
</g>
<g fill="rgb(0%, 0%, 0%)" fill-opacity="1">
<use xlink:href="#glyph-1-2" x="98.354" y="87.524"/>
</g>
<g fill="rgb(0%, 0%, 0%)" fill-opacity="1">
<use xlink:href="#glyph-2-0" x="108.725" y="87.524"/>
</g>
<g fill="rgb(0%, 0%, 0%)" fill-opacity="1">
<use xlink:href="#glyph-1-5" x="118.685" y="87.524"/>
<use xlink:href="#glyph-1-7" x="125.878026" y="87.524"/>
<use xlink:href="#glyph-1-3" x="128.64764" y="87.524"/>
</g>
</svg>
